<svg width="16" height="20" viewBox="0 0 16 20" fill="none" xmlns="http://www.w3.org/2000/svg">
<path d="M8 0C4.12297 0 0.96875 3.15422 0.96875 7.03125C0.96875 8.34117 1.3316 9.61953 2.01832 10.7286L7.59977 19.723C7.70668 19.8953 7.89504 20 8.09762 20C8.09918 20 8.1007 20 8.10227 20C8.3066 19.9984 8.49535 19.8905 8.60031 19.7152L14.0395 10.6336C14.6883 9.54797 15.0312 8.30231 15.0312 7.03125C15.0312 3.15422 11.877 0 8 0ZM13.0338 10.032L8.08875 18.2885L3.01434 10.1112C2.44273 9.18805 2.13281 8.12305 2.13281 7.03125C2.13281 3.80039 4.76914 1.16406 8 1.16406C11.2309 1.16406 13.8633 3.80039 13.8633 7.03125C13.8633 8.09066 13.5738 9.12844 13.0338 10.032Z" fill="#B777BE"/>
</svg>
