<svg width="20" height="20" viewBox="0 0 20 20" fill="none" xmlns="http://www.w3.org/2000/svg">
<path d="M17.981 11.2046C17.491 15.2646 14.581 15.5246 14.051 15.7046C13.821 15.7746 11.701 16.3146 9.04102 16.1446L6.15102 19.3446V15.6546L6.13102 15.6446C2.25102 14.5446 2.38102 10.4046 2.43102 8.23456C2.47102 6.06456 2.86102 4.29456 4.05102 3.09456C6.17102 1.12456 10.551 1.41456 10.551 1.41456C14.251 1.43456 16.021 2.57456 16.431 2.95456C17.791 4.15456 18.481 7.01456 17.981 11.2046ZM17.431 1.94456C16.941 1.48456 14.981 0.0245636 10.611 0.0145636C10.611 0.0145636 5.46102 -0.305436 2.95102 2.05456C1.55102 3.48456 1.06102 5.58456 1.01102 8.17456C0.961017 10.7746 0.891017 15.6446 5.47102 16.9646V18.9746C5.47102 18.9746 5.44102 19.7946 5.96102 19.9546C6.59102 20.1546 6.97102 19.5346 7.57102 18.8646C7.90102 18.4946 8.36102 17.9546 8.71102 17.5446C11.841 17.8146 14.261 17.1946 14.531 17.1046C15.161 16.8946 18.741 16.4246 19.331 11.5546C19.941 6.54456 19.051 3.37456 17.431 1.94456Z" fill="#B777BE"/>
<path d="M14.641 11.8144C14.641 11.8144 14.051 11.3144 13.771 11.0944C13.501 10.8944 13.071 10.6144 12.831 10.4844C12.401 10.2344 11.961 10.3944 11.781 10.6344L11.401 11.1244C11.211 11.3744 10.911 11.3344 10.831 11.3144C10.271 11.1744 9.68096 10.8244 9.07096 10.2344C8.44096 9.63437 8.07096 9.01437 7.94096 8.36437L7.93096 8.32437C7.89096 8.05437 7.94096 7.93437 8.05096 7.75437L8.07096 7.73437C8.33096 7.49437 8.80096 7.20437 8.86096 6.93437C9.05096 6.45437 8.24096 5.45437 8.12096 5.28437C8.12096 5.28437 7.53096 4.50437 7.32096 4.35437C7.10096 4.17437 6.75096 4.06437 6.40096 4.28437L6.38096 4.29437C5.37096 4.97437 5.00096 5.37437 5.10096 5.96437L5.15096 6.19437C5.66096 7.81437 6.66096 9.54437 8.13096 11.0744C9.59096 12.5944 11.181 13.5044 12.731 14.1344C13.141 14.2644 13.561 14.1544 13.991 13.7844H14.001C14.331 13.4744 14.591 13.1444 14.791 12.7944V12.7844C14.981 12.4044 14.921 12.0544 14.641 11.8144Z" fill="#B777BE"/>
<path d="M12.211 8.26479C12.151 8.26479 12.101 8.21479 12.091 8.15479C12.071 7.73479 11.961 7.41479 11.751 7.19479C11.551 6.98479 11.251 6.86479 10.851 6.84479C10.791 6.84479 10.741 6.78479 10.741 6.71479C10.741 6.64479 10.801 6.59479 10.861 6.60479C11.311 6.63479 11.671 6.77479 11.911 7.03479C12.151 7.29479 12.291 7.66479 12.311 8.14479C12.331 8.20479 12.281 8.26479 12.211 8.26479Z" fill="#B777BE"/>
<path d="M13.3711 8.66456C13.3011 8.66456 13.2511 8.60456 13.2511 8.54456C13.2711 7.73456 13.0311 7.05456 12.5511 6.51456C12.3111 6.24456 12.0211 6.03456 11.6811 5.88456C11.3411 5.73456 10.9511 5.64456 10.5211 5.60456C10.4611 5.60456 10.4111 5.54456 10.4111 5.47456C10.4111 5.40456 10.4711 5.35456 10.5311 5.36456C11.4611 5.43456 12.2011 5.76456 12.7211 6.34456C13.2411 6.92456 13.5011 7.66456 13.4811 8.53456C13.4811 8.61456 13.4311 8.66456 13.3711 8.66456Z" fill="#B777BE"/>
<path d="M14.551 9.13481C14.491 9.13481 14.431 9.08481 14.431 9.01481C14.421 8.30481 14.321 7.6548 14.111 7.0948C13.901 6.5448 13.591 6.0548 13.191 5.6448C12.781 5.2348 12.321 4.9248 11.811 4.7248C11.301 4.5248 10.741 4.4148 10.131 4.4148C10.071 4.4148 10.011 4.36481 10.011 4.29481C10.011 4.22481 10.061 4.1748 10.131 4.1748C11.411 4.1848 12.491 4.6248 13.351 5.4848C13.781 5.9148 14.111 6.43481 14.331 7.02481C14.551 7.6048 14.661 8.2848 14.671 9.0248C14.661 9.0848 14.611 9.13481 14.551 9.13481Z" fill="#B777BE"/>
</svg>
